<?xml version="1.0" standalone="no"?><!DOCTYPE svg PUBLIC "-//W3C//DTD SVG 1.1//EN" "http://www.w3.org/Graphics/SVG/1.1/DTD/svg11.dtd"><svg t="1609299371751" class="icon" viewBox="0 0 1024 1024" version="1.1" xmlns="http://www.w3.org/2000/svg" p-id="2505" xmlns:xlink="http://www.w3.org/1999/xlink" width="200" height="200"><defs><style type="text/css"></style></defs><path d="M783.36 404.48a32 32 0 0 1-22.4-9.6L512 145.92 263.04 394.88a32 32 0 0 1-45.44 0 32.64 32.64 0 0 1 0-45.44l272-271.36a30.72 30.72 0 0 1 44.8 0l272 271.36a32.64 32.64 0 0 1 0 45.44 32.64 32.64 0 0 1-23.04 9.6z" fill="#323333" p-id="2506"></path><path d="M512 823.68a32 32 0 0 1-32-32V119.68a32 32 0 0 1 64 0v672a32 32 0 0 1-32 32z" fill="#323333" p-id="2507"></path><path d="M967.04 977.28H56.96a32 32 0 0 1-32-32v-313.6a32.64 32.64 0 0 1 32-32 32 32 0 0 1 32 32v281.6h846.08v-281.6a32 32 0 0 1 32-32 32.64 32.64 0 0 1 32 32v313.6a32 32 0 0 1-32 32z" fill="#323333" p-id="2508"></path></svg>