<?xml version="1.0" encoding="UTF-8"?>
<svg width="332px" height="332px" viewBox="0 0 332 332" version="1.1" xmlns="http://www.w3.org/2000/svg" xmlns:xlink="http://www.w3.org/1999/xlink">
    <!-- Generator: Sketch 59 (86127) - https://sketch.com -->
    <title>xxhdpi/logo_l</title>
    <desc>Created with Sketch.</desc>
    <defs>
        <linearGradient x1="99.7165249%" y1="49.1666368%" x2="-13.2455116%" y2="51.0601372%" id="linearGradient-1">
            <stop stop-color="#00A7ED" offset="26%"></stop>
            <stop stop-color="#00E2CC" offset="99%"></stop>
        </linearGradient>
        <linearGradient x1="45.5447609%" y1="20.2092642%" x2="66.3303173%" y2="113.553116%" id="linearGradient-2">
            <stop stop-color="#0896F7" offset="0%"></stop>
            <stop stop-color="#00E2CC" offset="97%"></stop>
        </linearGradient>
        <linearGradient x1="-7.86682153%" y1="75.0531435%" x2="106.864111%" y2="27.7894954%" id="linearGradient-3">
            <stop stop-color="#0896F7" offset="20%"></stop>
            <stop stop-color="#00E2CC" offset="80%"></stop>
        </linearGradient>
        <linearGradient x1="-6.69133125%" y1="55.2624639%" x2="99.2026536%" y2="46.5654039%" id="linearGradient-4">
            <stop stop-color="#0896F7" offset="0%"></stop>
            <stop stop-color="#00E2CC" offset="100%"></stop>
        </linearGradient>
    </defs>
    <g id="页面-1" stroke="none" stroke-width="1" fill="none" fill-rule="evenodd">
        <g id="最终版" transform="translate(-349.000000, -236.000000)" fill-rule="nonzero">
            <g id="编组-8" transform="translate(349.000000, 236.000000)">
                <g id="编组-7" transform="translate(26.000000, 43.000000)">
                    <g id="编组备份" transform="translate(46.000000, 0.000000)">
                        <rect id="矩形" fill="#FFFFFF" x="0" y="0" width="188" height="188" rx="45"></rect>
                        <g id="资源-5" transform="translate(31.333333, 39.480000)">
                            <polygon id="路径" fill="url(#linearGradient-1)" points="22.1443331 92.712183 31.3838881 108.72076 93.9494452 108.72076 84.7098902 92.712183"></polygon>
                            <path d="M84.5821728,92.712183 L79.7009737,92.73613 C79.4510655,97.9342377 78.1917147,103.033998 75.9931782,107.750906 L84.5821728,92.712183 Z" id="路径" fill="#0E96DB"></path>
                            <polygon id="路径" fill="url(#linearGradient-2)" points="92.8399004 30.4419724 66.0072747 30.4419724 47.5241735 30.4419724 47.348562 30.4419724 37.6460315 47.2487828 37.8176517 47.2487828 29.5120301 61.6369452 29.5120301 62.0677419 47.7562433 61.9555527 47.9951313 61.6369452 56.3047441 47.2487828 102.542431 47.2487828 106.749123 54.5326653 106.545573 54.8918705 106.517635 54.8918705 75.4862998 108.636945 93.9494452 108.636945 103.212947 92.5924479 103.260841 92.5924479 125.232224 54.5326653 111.323002 30.4419724"></polygon>
                            <polygon id="路径" fill="url(#linearGradient-3)" points="77.9847713 78.5435349 87.6873019 61.7367244 22.7909024 61.7367244 18.5842108 54.4528419 40.6234432 16.2733243 103.192991 16.2733243 93.9494452 0.264747509 31.3838881 0.264747509 0.101109601 54.4528419 14.0103317 78.5435349 14.0103317 78.5435349 32.493433 78.5435349"></polygon>
                            <polygon id="路径" fill="url(#linearGradient-4)" points="103.192991 16.2733243 93.9494452 0.264747509 49.8669894 0.264747509 40.6234432 16.2733243"></polygon>
                            <path d="M40.6234432,16.2733243 L45.5046422,16.2733243 C45.7760023,11.0757857 47.0584934,5.98106963 49.2802876,1.27451313 L40.6234432,16.2733243 Z" id="路径" fill="#0E96DB"></path>
                        </g>
                    </g>
                    <path d="M21.6298828,248 L27.3349609,248 L21.9892578,216.262695 L17.6992188,216.262695 L-2.29101562,248 L4.37988281,248 L8.46777344,241.104492 L20.6191406,241.104492 L21.6298828,248 Z M11.3427734,236.230469 L18.2158203,224.640625 L19.9003906,236.230469 L11.3427734,236.230469 Z M41.5302734,248.359375 C48.3359375,248.359375 54.1308594,243.957031 54.1308594,237.780273 C54.1308594,228.773438 41.7099609,230.143555 41.7099609,224.910156 C41.7099609,222.753906 43.7763672,220.867188 46.5390625,220.867188 C48.515625,220.867188 50.5371094,221.87793 51.1435547,224.03418 L56.3320312,221.585938 C54.9619141,217.542969 51.2333984,215.791016 47.1904297,215.791016 C40.96875,215.791016 36.0048828,219.856445 36.0048828,225.449219 C36.0048828,234.34375 48.3359375,232.726562 48.3359375,238.611328 C48.3359375,241.329102 45.6630859,243.305664 42.0693359,243.305664 C38.4980469,243.305664 36.6113281,241.374023 36.6113281,237.825195 L30.7714844,238.791016 C30.3447266,245.057617 35.6455078,248.359375 41.5302734,248.359375 Z M57.3652344,248 L63.0703125,248 L70.3701172,216.262695 L64.6650391,216.262695 L57.3652344,248 Z M97.5478516,216.262695 L92.4042969,238.521484 L84.1611328,216.262695 L78.5458984,216.262695 L71.2460938,248 L76.7041016,248 L81.9375,225.336914 L90.2255859,248 L95.7060547,248 L103.02832,216.262695 L97.5478516,216.262695 Z M135.686523,216.262695 L122.007812,238.835938 L118.84082,216.262695 L111.204102,216.262695 L103.904297,248 L109.362305,248 L114.955078,223.719727 L118.054688,245.237305 L123.580078,245.237305 L135.933594,224.887695 L130.610352,248 L136.09082,248 L143.413086,216.262695 L135.686523,216.262695 Z M164.391602,248 L170.09668,248 L164.750977,216.262695 L160.460938,216.262695 L140.470703,248 L147.141602,248 L151.229492,241.104492 L163.380859,241.104492 L164.391602,248 Z M154.104492,236.230469 L160.977539,224.640625 L162.662109,236.230469 L154.104492,236.230469 Z M184.291992,248.359375 C191.097656,248.359375 196.892578,243.957031 196.892578,237.780273 C196.892578,228.773438 184.47168,230.143555 184.47168,224.910156 C184.47168,222.753906 186.538086,220.867188 189.300781,220.867188 C191.277344,220.867188 193.298828,221.87793 193.905273,224.03418 L199.09375,221.585938 C197.723633,217.542969 193.995117,215.791016 189.952148,215.791016 C183.730469,215.791016 178.766602,219.856445 178.766602,225.449219 C178.766602,234.34375 191.097656,232.726562 191.097656,238.611328 C191.097656,241.329102 188.424805,243.305664 184.831055,243.305664 C181.259766,243.305664 179.373047,241.374023 179.373047,237.825195 L173.533203,238.791016 C173.106445,245.057617 178.407227,248.359375 184.291992,248.359375 Z M206.416016,248 L212.121094,248 L218.230469,221.361328 L228.180664,221.361328 L229.371094,216.262695 L203.788086,216.262695 L202.597656,221.361328 L212.547852,221.361328 L206.416016,248 Z M226.630859,248 L247.744141,248 L248.979492,242.609375 L233.571289,242.609375 L235.368164,234.748047 L249.720703,234.748047 L250.911133,229.514648 L236.558594,229.514648 L238.445312,221.496094 L253.853516,221.496094 L255.043945,216.262695 L233.930664,216.262695 L226.630859,248 Z M254.549805,248 L260.254883,248 L263.421875,234.433594 L267.779297,234.433594 L272.383789,248 L278.358398,248 L272.945312,233.961914 C276.853516,232.726562 280.020508,229.829102 280.896484,226.100586 C282.333984,219.901367 277.954102,216.262695 272.024414,216.262695 L261.894531,216.262695 L254.549805,248 Z M264.522461,229.78418 L266.454102,221.361328 L271.193359,221.361328 C274.450195,221.361328 275.977539,222.84375 275.416016,225.179688 C274.832031,227.852539 272.473633,229.649414 269.396484,229.78418 L264.522461,229.78418 Z" id="ASINMASTER" fill="#FFFFFF"></path>
                </g>
            </g>
        </g>
    </g>
</svg>